<?xml version="1.0" standalone="no"?>
<!DOCTYPE svg PUBLIC "-//W3C//DTD SVG 20010904//EN"
 "http://www.w3.org/TR/2001/REC-SVG-20010904/DTD/svg10.dtd">
<svg version="1.0" xmlns="http://www.w3.org/2000/svg"
 width="512.000000pt" height="512.000000pt" viewBox="0 0 512.000000 512.000000"
 preserveAspectRatio="xMidYMid meet">
<metadata>
Created by potrace 1.11, written by Peter Selinger 2001-2013
</metadata>
<g transform="translate(0.000000,512.000000) scale(0.100000,-0.100000)"
fill="#000000" stroke="none">
<path d="M0 4485 l0 -635 374 0 374 0 45 73 c25 39 52 79 60 88 8 9 17 32 20
50 2 19 16 73 29 121 27 94 68 158 156 240 76 71 232 239 232 250 0 15 89 140
134 186 22 24 73 64 111 89 67 44 186 140 193 156 2 4 24 7 48 7 43 0 44 -1
44 -31 l0 -32 208 7 c114 4 288 13 387 21 99 8 278 17 398 21 515 17 119 24
-1298 24 l-1515 0 0 -635z"/>
<path d="M3217 5087 c131 -67 242 -141 337 -221 29 -25 62 -46 72 -46 11 0 68
-20 126 -45 59 -25 114 -45 122 -45 18 0 382 -361 448 -445 27 -33 78 -94 114
-135 36 -41 89 -101 118 -133 28 -33 55 -66 60 -75 4 -10 20 -34 34 -54 l25
-38 223 0 224 0 0 635 0 635 -982 -1 -983 0 62 -32z"/>
<path d="M2752 4764 c9 -9 21 -13 28 -9 14 9 -5 25 -30 25 -12 0 -12 -3 2 -16z"/>
<path d="M2474 4749 c-27 -14 -58 -73 -51 -99 3 -14 -3 -30 -19 -47 -13 -14
-24 -32 -24 -39 0 -19 -30 -17 -52 3 -11 9 -18 11 -18 5 0 -7 4 -12 8 -12 5 0
14 -11 20 -25 9 -19 9 -25 -1 -26 -6 0 -24 -2 -39 -4 -31 -4 -50 15 -50 49 0
21 -3 23 -14 11 -12 -11 -19 -9 -45 15 -24 23 -37 28 -59 24 -23 -5 -31 -1
-45 20 -19 28 -45 35 -45 11 0 -8 -11 -17 -25 -21 -14 -3 -31 -16 -37 -27 -10
-20 -11 -20 -24 -2 -18 24 -18 35 1 35 17 0 20 16 4 26 -25 15 -38 -38 -23
-101 7 -27 6 -29 -9 -16 -10 7 -17 19 -17 27 0 7 -5 16 -11 20 -8 4 -9 -3 -5
-23 5 -21 2 -34 -9 -43 -12 -10 -15 -10 -15 0 0 10 -5 9 -17 -2 -19 -16 -132
-19 -166 -4 -26 12 -30 3 -15 -35 8 -19 13 -40 12 -46 -1 -7 -2 -29 -3 -48 -1
-33 -21 -52 -21 -20 0 21 -27 30 -44 16 -11 -10 -16 -8 -21 8 -10 33 -62 29
-77 -6 -6 -16 -10 -33 -9 -39 1 -7 -5 -14 -14 -17 -10 -5 -13 -15 -9 -37 6
-25 3 -30 -13 -30 -20 0 -63 34 -63 50 0 6 -9 10 -20 10 -19 0 -20 -4 -15 -37
4 -21 9 -46 12 -55 6 -26 -56 -81 -82 -73 -50 16 -68 17 -90 5 -20 -11 -22
-15 -10 -26 7 -8 18 -14 23 -14 11 0 25 -30 18 -37 -3 -3 -13 5 -23 16 -9 12
-23 21 -29 21 -7 0 -14 5 -16 11 -2 7 -13 3 -27 -9 -17 -13 -21 -21 -13 -26 7
-4 12 -2 12 3 0 6 8 11 19 11 22 0 49 -38 58 -80 7 -35 -11 -41 -22 -7 -7 21
-8 21 -12 -6 -3 -21 -9 -27 -21 -22 -13 5 -13 2 3 -15 15 -16 25 -19 54 -14
34 7 35 6 17 -11 -12 -12 -37 -20 -74 -22 -32 -3 -64 -11 -72 -18 -8 -8 -28
-18 -44 -24 -27 -11 -28 -13 -21 -57 3 -26 9 -52 11 -58 2 -6 -11 -20 -31 -30
-39 -21 -45 -36 -15 -36 11 0 20 -5 20 -11 0 -6 10 -9 23 -7 12 2 21 9 19 16
-3 15 19 15 53 0 51 -23 27 -36 -63 -34 -42 1 -67 -2 -74 -11 -14 -17 -14 -81
0 -114 6 -15 14 -42 17 -60 6 -30 3 -36 -24 -52 -17 -10 -31 -25 -31 -33 0
-19 -16 -18 -68 8 -45 21 -73 18 -78 -10 -1 -7 0 -8 3 -2 11 23 83 1 112 -34
11 -13 11 -19 0 -33 -8 -9 -13 -19 -12 -22 1 -3 0 -16 -4 -28 -4 -16 -13 -23
-31 -23 -23 0 -24 -1 -10 -17 9 -10 13 -24 11 -30 -6 -16 9 -17 25 -1 17 17
15 -12 -2 -35 -13 -17 -15 -17 -29 3 -11 16 -16 18 -20 8 -4 -10 -6 -10 -6 0
-1 16 -31 16 -31 -1 0 -7 -10 -17 -22 -22 -18 -8 -22 -17 -20 -42 2 -25 -4
-39 -33 -67 -19 -20 -47 -39 -60 -42 -27 -7 -27 -6 -27 -128 0 -37 -7 -71 -17
-90 -10 -17 -23 -52 -30 -78 -7 -26 -21 -55 -30 -65 -31 -34 -44 -72 -45 -130
-1 -42 3 -57 12 -55 6 1 12 -5 12 -13 0 -8 5 -15 10 -15 6 0 10 -10 10 -22 1
-21 2 -22 14 -6 7 10 15 15 18 12 8 -8 -8 -72 -22 -90 -11 -12 -10 -13 4 -8 9
3 16 12 16 20 0 8 7 14 15 14 19 0 19 -17 0 -37 -26 -26 -19 -34 60 -69 34
-15 37 -18 20 -24 -11 -4 -37 -1 -59 6 -45 16 -82 18 -91 4 -3 -6 1 -7 10 -4
19 8 54 -2 78 -20 17 -13 17 -15 -5 -49 -13 -19 -33 -40 -45 -46 -13 -6 -23
-16 -23 -23 0 -9 3 -9 12 0 17 17 38 15 38 -4 0 -10 4 -12 13 -7 6 4 21 8 31
8 27 0 31 20 7 44 -16 16 -17 22 -6 31 11 9 18 2 35 -35 27 -58 47 -67 75 -31
14 18 27 25 38 20 22 -8 22 -23 0 -31 -10 -4 -20 -10 -23 -13 -10 -14 -59 -20
-66 -9 -4 8 -9 7 -15 -2 -15 -24 -10 -45 15 -57 16 -7 24 -19 24 -36 l0 -26
-24 25 c-23 25 -24 25 -50 9 -22 -15 -25 -23 -20 -53 3 -19 11 -38 18 -43 9
-5 9 -8 2 -8 -7 0 -15 -7 -18 -16 -5 -13 0 -15 35 -9 44 8 45 3 11 -37 -11
-13 -19 -15 -33 -8 -12 7 -20 7 -24 0 -3 -5 -1 -10 5 -10 6 0 8 -5 5 -10 -4
-6 -1 -17 5 -25 10 -12 10 -21 0 -45 -10 -25 -10 -32 4 -45 16 -17 22 -45 9
-45 -5 0 -13 -12 -20 -26 -10 -23 -10 -24 8 -19 17 6 18 4 8 -18 -7 -16 -23
-27 -43 -31 l-31 -6 29 -19 c15 -10 33 -29 40 -42 13 -27 66 -40 104 -27 20 7
22 6 12 -13 -6 -11 -18 -23 -26 -26 -20 -7 -18 -23 4 -23 9 1 35 7 57 15 25 9
43 11 51 4 8 -6 23 2 48 28 26 27 36 33 36 20 0 -9 -5 -17 -11 -17 -6 0 -9 -9
-6 -20 4 -14 -2 -25 -19 -36 -14 -10 -26 -30 -30 -50 -3 -19 -15 -39 -26 -45
-16 -8 -19 -17 -14 -40 5 -28 4 -29 -31 -29 l-36 0 21 -23 c12 -13 22 -29 22
-35 0 -7 5 -12 10 -12 13 0 13 17 0 25 -17 11 -11 25 11 25 19 0 21 -4 16 -36
-10 -60 -38 -121 -60 -132 -21 -10 -21 -11 4 -11 14 -1 31 5 38 12 11 10 14 9
18 -2 3 -7 16 -23 29 -34 20 -17 24 -30 24 -79 l0 -58 67 5 c121 9 170 25 126
42 -26 10 -52 45 -45 62 4 11 8 10 21 -6 12 -15 26 -19 54 -17 41 3 45 -5 23
-48 -19 -35 -4 -49 50 -45 30 1 38 -1 35 -13 -11 -42 -6 -55 27 -65 17 -5 32
-14 32 -20 0 -17 -22 -35 -44 -36 -19 0 -18 -1 4 -10 17 -7 26 -7 28 0 2 6 13
11 24 11 27 0 18 -22 -18 -39 -16 -8 -23 -16 -17 -18 7 -3 21 0 32 6 29 16 68
13 75 -4 8 -22 -11 -65 -29 -65 -8 0 -15 -8 -15 -17 0 -13 3 -14 12 -5 7 7 18
12 25 12 19 0 87 -67 75 -74 -5 -3 -7 -17 -4 -31 l4 -25 -89 0 c-86 0 -90 -1
-101 -25 -10 -21 -8 -29 18 -57 17 -18 30 -36 30 -40 0 -5 8 -16 18 -26 29
-29 74 -115 63 -122 -6 -3 -6 -11 -1 -20 13 -20 13 -130 0 -130 -5 0 -10 -4
-10 -10 0 -6 95 -10 264 -10 l264 0 4 73 c6 133 -28 469 -62 605 -16 66 -29
96 -65 142 -25 32 -60 71 -79 87 -38 31 -85 127 -121 244 -31 101 -83 230
-101 250 -8 9 -33 19 -54 23 -26 4 -53 19 -80 45 -43 40 -49 58 -25 67 8 4 12
10 9 15 -7 12 9 12 21 0 15 -13 72 -23 78 -14 3 5 2 67 -3 139 -6 71 -10 201
-11 289 -2 169 4 207 57 362 14 39 29 107 34 150 12 94 43 250 53 259 4 4 7
14 7 22 0 8 14 42 31 75 16 33 28 66 25 73 -5 14 20 43 60 70 27 18 166 36
178 23 2 -2 6 -15 9 -29 9 -36 -24 -86 -61 -94 -57 -13 -197 -186 -186 -231 4
-16 -3 -29 -25 -48 -35 -29 -38 -37 -14 -37 14 0 14 -2 -2 -20 -14 -16 -15
-20 -4 -20 8 0 20 5 27 12 18 18 42 -20 35 -57 -3 -21 -2 -26 5 -16 7 9 12 10
16 2 4 -6 0 -14 -8 -17 -29 -11 -17 -30 19 -31 19 -1 42 -8 50 -17 9 -9 26
-16 38 -16 20 -1 20 -2 5 -11 -10 -5 -18 -18 -18 -28 0 -10 -7 -24 -15 -31 -8
-7 -15 -21 -15 -31 0 -10 -5 -21 -10 -24 -16 -10 -11 -44 9 -66 19 -20 19 -21
0 -40 -11 -11 -24 -17 -29 -14 -6 4 -10 -8 -10 -27 0 -21 -7 -40 -20 -51 -11
-9 -21 -27 -21 -39 -1 -13 -3 -40 -5 -61 -2 -26 3 -47 16 -65 15 -22 19 -47
21 -132 1 -58 9 -124 16 -148 8 -23 11 -47 8 -52 -3 -5 3 -18 15 -30 11 -11
20 -29 20 -39 0 -31 40 -151 50 -151 6 0 10 -7 10 -16 0 -8 4 -13 9 -10 5 4
12 -7 16 -24 4 -16 13 -30 21 -30 18 0 18 14 -1 68 -9 24 -15 58 -15 75 1 18
-2 45 -6 61 -5 21 -4 27 5 22 7 -5 11 1 11 14 0 17 4 20 21 15 16 -6 20 -4 13
6 -4 8 13 -5 38 -27 61 -56 85 -69 104 -54 15 13 77 6 98 -10 59 -48 68 -60
62 -86 -4 -14 -7 -76 -7 -137 -1 -108 0 -112 25 -130 14 -10 26 -27 26 -37 0
-21 29 -35 44 -20 13 13 46 13 46 0 0 -5 -8 -14 -17 -19 -16 -9 -16 -10 -1
-11 9 0 19 6 22 13 3 9 8 8 18 -3 16 -19 78 -15 78 5 0 8 9 19 20 25 11 6 20
17 20 25 0 8 6 16 13 16 6 1 23 3 37 4 13 1 26 7 28 13 2 6 19 16 38 22 19 6
34 16 34 21 0 6 -5 7 -12 3 -7 -5 -9 -2 -5 8 3 9 1 20 -5 26 -16 16 1 72 25
83 16 7 22 19 23 46 1 43 -21 73 -53 73 -13 0 -23 6 -23 14 0 16 77 36 135 36
19 0 37 5 40 10 3 6 15 10 26 10 11 0 17 5 14 10 -3 6 -1 10 4 10 6 0 11 -7
11 -15 0 -10 10 -15 33 -15 29 0 117 57 178 115 9 8 19 15 22 15 11 0 8 -58
-3 -65 -6 -3 -10 -32 -9 -63 0 -31 -6 -81 -14 -110 -16 -57 -9 -72 27 -53 26
14 101 175 117 252 6 30 17 61 25 70 8 9 17 50 21 94 4 56 11 83 25 97 10 10
18 27 18 38 0 11 5 20 11 20 5 0 7 -6 3 -12 -5 -10 -3 -10 7 0 14 13 21 112 8
112 -4 0 -6 11 -6 24 -1 23 -48 96 -62 96 -4 0 -13 17 -20 37 -8 20 -35 59
-62 87 -50 52 -61 82 -34 92 8 4 15 14 15 24 0 10 7 20 15 24 17 6 21 61 5 71
-15 9 -12 25 5 25 8 0 15 6 15 13 0 6 12 23 26 36 14 13 23 30 20 38 -5 11 18
19 47 14 4 0 7 3 7 9 0 5 -12 12 -27 16 -54 11 -60 15 -35 25 21 8 99 -4 177
-28 20 -6 20 -5 1 16 -30 33 -11 37 34 7 47 -31 57 -50 40 -71 -10 -12 -10
-15 3 -15 8 0 20 -13 27 -30 7 -16 18 -30 26 -30 7 0 16 -9 19 -21 4 -12 14
-28 22 -37 62 -72 83 -99 83 -113 0 -9 9 -26 20 -39 16 -18 20 -37 20 -89 0
-36 -5 -84 -11 -106 -5 -22 -12 -56 -14 -75 -2 -19 -7 -54 -11 -77 -5 -36 -3
-43 10 -43 9 0 19 7 22 15 8 19 38 20 53 2 6 -8 10 -16 8 -18 -1 -3 8 5 20 18
12 13 27 23 33 23 5 0 10 5 10 12 0 6 3 9 6 6 3 -4 -4 -36 -15 -73 -26 -83
-26 -102 -1 -115 15 -8 27 -7 51 5 33 18 59 7 59 -24 0 -9 13 -28 29 -44 20
-18 27 -33 24 -47 -8 -29 -88 -99 -140 -122 l-46 -20 -60 41 c-57 40 -60 41
-78 25 -28 -25 -50 -107 -39 -143 8 -30 4 -67 -10 -86 -14 -19 -23 -78 -11
-71 16 10 14 -9 -2 -23 -8 -6 -14 -34 -15 -68 -2 -81 -10 -173 -22 -273 -13
-108 -30 -377 -26 -413 2 -15 -1 -27 -5 -27 -5 0 -9 -11 -9 -25 0 -14 -3 -25
-8 -25 -4 0 -12 -10 -17 -22 -6 -13 -21 -28 -34 -35 -28 -13 -114 -94 -107
-100 12 -12 -41 -47 -73 -48 -20 -1 -49 -5 -65 -10 -17 -4 -50 -3 -83 5 -30 6
-57 9 -61 6 -3 -4 -1 -20 5 -36 10 -27 9 -30 -10 -31 -12 0 -16 -3 -9 -6 21
-8 13 -20 -18 -26 -21 -5 -30 -12 -30 -27 0 -20 6 -20 234 -20 l234 0 58 58
c75 75 166 198 195 267 13 30 27 55 31 55 19 0 75 -62 142 -158 41 -59 88
-116 105 -127 17 -11 34 -29 37 -40 14 -44 34 -55 101 -55 57 0 63 2 63 21 0
22 -22 49 -39 49 -6 0 -11 8 -11 18 0 10 -9 35 -20 57 -21 41 -15 55 23 55 15
0 17 10 17 73 0 47 7 93 20 130 11 31 20 65 20 76 0 36 31 85 73 118 23 17 53
40 66 50 44 34 106 102 99 109 -6 5 -259 -23 -282 -32 -9 -3 -16 -10 -16 -15
0 -19 -27 -8 -40 15 -12 24 -8 161 6 175 3 3 27 11 52 17 44 10 45 12 23 21
-20 8 -21 11 -8 16 10 4 17 11 17 17 0 7 -7 7 -22 -1 -22 -11 -22 -11 -7 7 9
10 15 24 12 30 -8 22 31 26 48 5 14 -17 26 -19 83 -16 45 2 74 10 93 23 39 28
67 30 92 8 12 -11 21 -14 21 -7 0 7 -11 23 -25 36 -15 13 -22 26 -16 29 5 4 8
26 5 51 -2 25 -2 45 1 45 2 0 25 -14 50 -32 34 -24 48 -29 57 -20 15 15 -9 63
-34 70 -27 7 -23 50 5 57 63 13 61 15 62 -49 0 -33 5 -61 10 -63 7 -2 10 14 8
41 -3 52 18 76 80 91 46 12 43 7 117 166 22 47 40 94 40 105 0 10 7 44 15 74
9 30 20 84 25 120 5 36 14 88 20 115 18 79 41 205 49 267 l7 56 -35 -5 c-60
-10 -82 -24 -28 -18 49 5 60 -3 30 -21 -15 -8 -51 -10 -93 -5 -15 2 -12 31 3
32 23 1 -30 17 -69 21 -25 2 -38 -1 -37 -8 1 -7 -9 -11 -22 -10 -14 0 -25 2
-25 4 0 2 12 15 28 29 l27 25 -32 -7 c-30 -6 -33 -5 -33 19 0 16 7 27 20 31
11 4 18 11 15 16 -3 5 1 6 9 3 8 -3 37 5 65 19 l51 24 -23 20 c-43 40 -99 51
-129 25 -21 -17 -37 0 -36 36 1 23 5 31 15 28 7 -3 19 3 25 14 10 16 24 20 65
20 56 0 62 4 73 56 10 45 -7 44 -25 0 -17 -41 -26 -48 -45 -35 -11 6 -12 9 -2
9 7 0 10 5 6 11 -8 14 45 69 68 69 10 0 18 4 18 9 0 5 26 13 57 17 44 5 53 9
36 15 -27 10 -109 4 -126 -8 -6 -6 -24 -13 -39 -17 -16 -3 -28 -11 -28 -16 0
-6 -4 -10 -10 -10 -18 0 3 31 26 41 13 4 24 15 24 24 0 10 11 15 33 16 17 1
24 3 15 6 -10 2 -18 10 -18 18 0 17 -32 24 -95 20 -51 -3 -85 8 -85 25 0 6 22
8 54 5 42 -4 64 0 107 19 61 26 105 65 59 51 -14 -4 -31 -12 -37 -17 -30 -24
-9 5 30 41 44 42 62 49 70 29 4 -8 6 -9 6 -2 1 7 -5 25 -11 40 -9 21 -20 29
-38 29 -18 0 -26 6 -28 23 -2 14 -10 22 -22 22 -10 0 -22 5 -25 11 -4 6 0 9
11 7 14 -2 20 8 30 52 6 30 19 72 28 93 9 20 12 37 7 37 -13 0 -66 -111 -63
-132 4 -21 -15 -23 -52 -7 l-24 11 24 25 c29 29 30 36 4 28 -12 -4 -20 -2 -20
5 0 7 -7 9 -16 6 -14 -6 -15 -4 -4 10 11 13 11 17 0 24 -7 4 -10 15 -7 24 4
10 1 16 -7 16 -17 0 -28 51 -14 67 5 7 20 15 31 18 12 4 36 13 53 22 41 21 79
11 93 -24 l11 -28 -5 30 c-7 34 -31 57 -54 51 -9 -3 -31 -8 -49 -11 l-34 -7
17 26 c10 15 31 36 46 47 16 11 29 25 29 32 0 8 -3 8 -12 -1 -19 -19 -38 -14
-38 11 0 15 -15 32 -51 55 -47 31 -52 32 -68 18 -25 -23 -34 -20 -29 9 5 26
-9 35 -18 11 -6 -16 -44 -29 -44 -15 0 4 -6 6 -14 3 -8 -3 -17 0 -22 7 -4 7
-3 14 3 16 6 2 -4 19 -22 38 -19 18 -31 36 -28 39 11 11 -30 46 -47 41 -9 -3
-47 -7 -83 -10 l-67 -4 0 29 c0 16 5 32 11 36 6 3 20 27 31 51 15 34 24 44 38
40 10 -3 -2 16 -29 44 -52 54 -60 57 -96 33 -24 -16 -25 -15 -25 5 0 11 -4 21
-9 21 -17 0 -91 73 -91 90 0 20 61 80 82 80 8 0 23 -10 31 -22 l16 -23 -6 23
c-3 14 -15 24 -32 28 -14 3 -35 7 -45 9 -11 2 -26 -1 -33 -7 -9 -7 -17 -7 -28
2 -21 17 -19 44 6 66 17 15 22 16 29 4 5 -8 12 -11 16 -7 9 8 -15 37 -31 37
-6 0 -20 -9 -30 -20 -12 -13 -21 -16 -25 -10 -4 6 -31 19 -61 30 l-54 20 -17
-22 c-10 -13 -18 -29 -18 -35 0 -7 -4 -13 -8 -13 -17 0 -21 13 -10 33 8 16 8
19 -5 14 -8 -3 -20 0 -26 6 -8 8 -11 8 -11 -1 0 -7 -6 -12 -13 -12 -9 0 -13
-19 -14 -65 0 -72 -8 -89 -27 -62 -7 9 -18 17 -24 17 -16 0 -27 50 -15 69 12
21 5 51 -12 51 -7 0 -16 8 -20 18 -6 15 -8 14 -16 -5 -4 -13 -15 -23 -24 -23
-18 0 -37 43 -29 65 4 8 2 15 -4 15 -6 0 -13 -6 -15 -12 -3 -8 -6 -6 -6 5 -1
9 4 17 9 17 24 0 7 32 -24 45 -18 8 -36 21 -39 30 -9 23 -27 18 -28 -7 0 -23
0 -23 -10 1 -15 39 -3 60 34 58 26 -2 32 -7 33 -24 1 -13 -2 -23 -7 -23 -5 0
-9 -4 -9 -10 0 -5 7 -7 15 -4 8 3 28 -4 46 -16 28 -20 35 -21 70 -11 36 11 39
15 39 47 0 28 5 36 25 44 17 6 25 17 25 32 -1 21 -2 22 -14 6 -16 -22 -26 -23
-26 -4 0 8 -5 16 -10 18 -20 6 -20 48 1 61 20 12 26 37 9 37 -5 0 -10 -5 -10
-11 0 -6 -6 -9 -12 -6 -7 2 -12 10 -11 16 2 6 -2 11 -8 11 -8 0 -8 5 1 15 11
13 6 15 -34 15 -25 0 -46 -5 -46 -10 0 -6 -12 -23 -27 -38 -22 -21 -36 -26
-63 -24 -19 2 -39 8 -45 13 -5 5 -22 9 -38 9 -25 0 -28 2 -17 15 10 12 10 15
-4 15 -9 0 -16 6 -16 14 0 22 -19 29 -36 15 -13 -10 -17 -10 -24 0 -5 9 -17
11 -32 8 -13 -3 -30 -2 -38 3 -16 10 -16 10 45 26 29 8 29 8 -12 12 -41 3 -58
22 -33 37 18 11 10 25 -14 25 -13 0 -27 -7 -30 -16 -3 -9 -11 -14 -18 -12 -6
2 -22 -7 -35 -20 -13 -12 -28 -20 -33 -17 -17 11 -11 25 16 35 23 9 24 11 10
26 -9 8 -16 20 -16 26 0 5 -7 8 -15 4 -10 -4 -14 1 -12 16 1 13 -4 22 -15 23
-10 2 -18 -1 -18 -6 0 -5 5 -9 11 -9 7 0 1 -8 -12 -18 -17 -13 -39 -17 -77
-16 -29 2 -50 -1 -47 -6 3 -5 1 -11 -5 -15 -5 -3 -7 -17 -4 -30 3 -14 -1 -33
-11 -49 -16 -24 -16 -26 -1 -26 17 0 22 -25 8 -34 -5 -3 -18 -3 -30 1 -18 4
-20 9 -11 24 6 13 6 25 -1 38 -13 25 -13 27 6 46 30 30 7 26 -27 -4 -37 -34
-49 -38 -49 -16 0 8 -5 15 -11 15 -6 0 -9 10 -7 23 3 17 0 23 -14 24 -10 1
-18 -2 -18 -6 0 -17 -44 -20 -61 -5 -15 14 -19 13 -42 -10 -15 -14 -33 -26
-41 -26 -24 0 -46 29 -46 61 0 23 4 29 22 29 28 0 17 11 -30 27 -43 15 -79 16
-108 2z m26 -20 c0 -8 5 -7 16 2 14 11 18 10 30 -6 18 -24 18 -34 -1 -40 -8
-3 -23 -8 -32 -12 -10 -3 -22 -5 -27 -4 -5 1 -17 -6 -27 -15 -18 -16 -19 -16
-19 10 0 15 8 38 18 51 18 25 42 33 42 14z m480 -69 c0 -5 -4 -10 -10 -10 -5
0 -10 5 -10 10 0 6 5 10 10 10 6 0 10 -4 10 -10z m40 -49 c0 -31 -14 -49 -25
-32 -8 13 5 61 16 61 5 0 9 -13 9 -29z m220 15 c0 -3 -4 -8 -10 -11 -5 -3 -10
-1 -10 4 0 6 5 11 10 11 6 0 10 -2 10 -4z m-1160 -16 c0 -5 -4 -10 -9 -10 -6
0 -13 5 -16 10 -3 6 1 10 9 10 9 0 16 -4 16 -10z m1096 -37 c-11 -11 -17 4 -9
23 7 18 8 18 11 1 2 -10 1 -21 -2 -24z m-86 -13 c0 -5 -8 -10 -17 -10 -15 0
-16 2 -3 10 19 12 20 12 20 0z m580 -77 c0 -48 -14 -59 -44 -37 -30 22 -33 39
-8 53 32 19 52 13 52 -16z m-1030 -78 c0 -13 -3 -30 -6 -39 -10 -27 -24 -18
-24 17 0 17 -4 48 -10 67 l-9 35 24 -28 c14 -15 25 -39 25 -52z m-920 25 c0
-5 -4 -10 -10 -10 -5 0 -10 5 -10 10 0 6 5 10 10 10 6 0 10 -4 10 -10z m779
-47 c2 -56 1 -57 -15 -35 -10 14 -22 21 -31 18 -11 -5 -13 -2 -9 10 3 8 6 19
6 24 0 11 29 40 39 40 4 0 9 -26 10 -57z m497 -38 l-29 -23 27 -17 c14 -10 26
-23 26 -30 0 -7 11 -24 26 -40 14 -15 23 -29 20 -32 -7 -8 -55 31 -56 45 0 7
-7 15 -15 19 -9 3 -22 18 -30 33 -14 27 -13 30 16 55 18 14 34 23 38 20 3 -4
-7 -17 -23 -30z m111 9 c-9 -9 -28 6 -21 18 4 6 10 6 17 -1 6 -6 8 -13 4 -17z
m-1292 -24 c3 -5 1 -10 -4 -10 -6 0 -11 5 -11 10 0 6 2 10 4 10 3 0 8 -4 11
-10z m1611 -39 c-2 -14 -5 -28 -5 -30 -2 -10 -12 9 -20 36 -8 27 -7 30 10 26
15 -4 18 -12 15 -32z m236 17 c-7 -7 -12 -8 -12 -2 0 6 3 14 7 17 3 4 9 5 12
2 2 -3 -1 -11 -7 -17z m-128 -93 c3 -9 0 -15 -9 -15 -8 0 -15 7 -15 15 0 8 4
15 9 15 5 0 11 -7 15 -15z m-2085 -14 c8 -5 11 -16 6 -30 -8 -27 -25 -27 -25
0 0 11 -4 17 -10 14 -11 -7 -14 8 -3 18 8 9 15 9 32 -2z m1455 -7 c3 -8 2 -12
-4 -9 -6 3 -10 10 -10 16 0 14 7 11 14 -7z m69 -20 c-13 -35 42 -45 76 -13 26
24 36 20 26 -10 -5 -18 -14 -21 -59 -21 -62 0 -84 15 -59 42 20 22 24 23 16 2z
m302 -25 c-4 -6 -1 -10 6 -8 8 1 23 1 34 0 37 -2 -6 -21 -49 -21 -38 0 -39 0
-21 20 19 21 41 28 30 9z m-2005 -9 c0 -13 -11 -13 -30 0 -12 8 -11 10 8 10
12 0 22 -4 22 -10z m2690 -21 c25 -13 40 -28 40 -40 0 -27 -12 -24 -54 15 -53
51 -50 58 14 25z m-1740 -3 c0 -22 -11 -46 -21 -46 -10 0 -12 43 -2 53 11 12
23 8 23 -7z m1606 -27 c3 -6 19 -9 35 -7 21 3 29 0 29 -10 0 -9 -3 -12 -6 -9
-4 3 -18 -3 -32 -13 -32 -26 -42 -25 -42 3 0 13 -5 28 -12 35 -9 9 -8 12 4 12
9 0 20 -5 24 -11z m-2506 -9 c0 -5 -7 -10 -16 -10 -8 0 -12 5 -9 10 3 6 10 10
16 10 5 0 9 -4 9 -10z m1948 -46 c20 -6 33 -44 14 -44 -15 0 -52 31 -47 40 3
4 -2 13 -10 20 -8 7 -15 20 -15 29 0 10 6 6 18 -12 9 -15 27 -30 40 -33z m252
4 c0 -4 -9 -8 -20 -8 -20 0 -28 29 -13 44 7 7 33 -21 33 -36z m-314 8 c10 -8
16 -17 12 -21 -8 -8 -48 13 -48 25 0 14 13 12 36 -4z m765 -49 c-13 -13 -26
-3 -16 12 3 6 11 8 17 5 6 -4 6 -10 -1 -17z m-336 4 c3 -5 1 -12 -5 -16 -5 -3
-10 1 -10 9 0 18 6 21 15 7z m-665 -21 c-11 -20 -50 -46 -50 -33 0 6 50 52 58
53 1 0 -2 -9 -8 -20z m510 -7 c0 -19 -3 -24 -10 -17 -6 6 -8 18 -4 27 9 24 14
21 14 -10z m510 3 c0 -3 -4 -8 -10 -11 -5 -3 -10 -1 -10 4 0 6 5 11 10 11 6 0
10 -2 10 -4z m-1324 -31 c18 -27 10 -53 -11 -35 -15 12 -26 60 -14 60 5 0 16
-11 25 -25z m418 -4 c7 -10 -17 -21 -45 -21 -23 0 -30 -44 -14 -96 6 -20 5
-21 -28 -11 -33 11 -35 13 -30 47 7 43 19 59 58 76 36 16 52 17 59 5z m-1384
-27 c0 -8 -5 -12 -10 -9 -6 4 -8 11 -5 16 9 14 15 11 15 -7z m1438 -39 c0 -26
-5 -49 -14 -56 -12 -10 -13 -8 -5 12 6 18 5 30 -5 43 -9 14 -10 24 -3 38 15
29 27 13 27 -37z m-538 30 c18 -21 2 -37 -30 -30 -23 5 -29 2 -34 -18 -5 -23
-33 -43 -43 -33 -9 9 29 62 55 78 34 21 37 21 52 3z m300 -21 c0 -21 -4 -33
-10 -29 -17 10 -11 65 7 65 2 0 3 -16 3 -36z m1181 13 c-1 -12 -15 -9 -19 4
-3 6 1 10 8 8 6 -3 11 -8 11 -12z m-2913 -32 c-3 -29 -3 -29 -29 -14 -16 8
-18 13 -8 25 19 23 39 17 37 -11z m1072 -15 c0 -13 -1 -13 -10 0 -5 8 -10 22
-10 30 0 13 1 13 10 0 5 -8 10 -22 10 -30z m-383 8 c-3 -8 -6 -5 -6 6 -1 11 2
17 5 13 3 -3 4 -12 1 -19z m277 -3 c3 -8 1 -15 -4 -15 -6 0 -10 7 -10 15 0 8
2 15 4 15 2 0 6 -7 10 -15z m496 6 c0 -12 -51 -73 -57 -68 -2 3 7 21 19 40 22
35 38 47 38 28z m-1520 -27 c0 -26 -23 -58 -34 -47 -10 11 -7 48 6 61 19 19
28 14 28 -14z m1990 -36 c0 -5 -7 -8 -15 -8 -15 0 -20 21 -8 33 7 7 23 -11 23
-25z m-1940 12 c0 -5 -4 -10 -9 -10 -6 0 -13 5 -16 10 -3 6 1 10 9 10 9 0 16
-4 16 -10z m3080 -19 c0 -12 -20 -25 -27 -18 -7 7 6 27 18 27 5 0 9 -4 9 -9z
m-1176 -166 c-5 -19 -2 -25 10 -25 9 0 25 -9 36 -20 l21 -21 -7 27 c-9 34 9
25 25 -13 6 -16 27 -39 46 -51 19 -14 32 -29 29 -37 -4 -8 5 -15 24 -20 24 -5
31 -13 37 -41 3 -19 13 -38 21 -41 17 -6 20 -143 3 -160 -17 -17 -23 -180 -9
-233 6 -25 13 -65 15 -90 4 -58 10 -92 30 -163 13 -46 14 -61 4 -73 -9 -11 -9
-17 1 -29 19 -23 5 -29 -42 -19 -35 7 -43 13 -44 32 -1 12 -24 48 -51 80 -51
59 -188 171 -210 172 -7 0 -13 5 -13 10 0 6 -10 15 -23 21 -23 11 -33 44 -16
54 5 4 7 11 4 16 -4 5 6 9 22 10 l28 1 -25 7 c-22 6 -20 8 19 14 24 4 53 14
64 22 36 25 107 13 107 -18 0 -16 58 -48 65 -36 4 5 -1 9 -9 9 -9 0 -13 6 -10
14 5 13 -82 86 -102 86 -5 0 -28 13 -51 29 -23 16 -62 31 -89 35 -26 3 -55 13
-65 22 -10 9 -36 18 -58 21 -23 3 -41 8 -41 12 0 3 -9 12 -21 19 -18 12 -24
11 -44 -8 -20 -18 -28 -20 -58 -12 -44 12 -85 4 -100 -19 -7 -11 -19 -19 -28
-19 -23 0 -42 -26 -36 -50 3 -11 2 -20 -3 -20 -13 0 -21 -33 -10 -40 19 -12
48 -150 32 -150 -10 0 -9 1 -15 -86 -2 -34 -8 -67 -12 -74 -5 -9 -4 -11 3 -6
8 5 12 0 12 -13 0 -34 -48 -24 -55 11 -6 27 -25 49 -25 29 0 -6 -7 -11 -16
-11 -13 0 -15 8 -12 38 3 21 -1 49 -9 65 -12 23 -20 27 -57 27 l-44 0 -18 -52
c-9 -29 -20 -55 -24 -58 -3 -3 -16 -25 -29 -50 -23 -45 -23 -45 -17 -10 18
108 18 151 3 183 -8 18 -23 51 -32 74 -10 23 -21 41 -25 38 -4 -2 -6 9 -5 26
1 20 -4 33 -17 40 -10 5 -18 20 -18 32 0 30 -18 47 -50 47 -14 0 -31 5 -38 12
-8 8 -16 5 -31 -13 -18 -23 -20 -23 -38 -6 -11 10 -35 17 -57 17 -32 0 -36 -3
-31 -19 5 -15 -1 -19 -36 -24 -26 -3 -46 -13 -56 -27 -12 -16 -23 -21 -45 -18
-21 3 -33 0 -40 -12 -7 -10 -20 -16 -32 -14 -12 3 -15 2 -8 -2 21 -10 13 -22
-19 -29 -23 -5 -36 -17 -50 -49 l-20 -41 7 45 c4 25 6 56 5 70 -3 25 -2 138 2
198 1 17 5 32 10 32 4 0 7 8 7 18 0 9 9 28 20 42 11 14 20 33 20 42 0 28 49
78 76 78 20 0 23 4 19 23 -5 18 0 26 20 37 23 12 27 11 40 -6 8 -11 15 -14 15
-6 0 24 18 12 18 -13 0 -15 -6 -25 -14 -25 -8 0 -14 -4 -14 -10 0 -5 5 -10 12
-10 17 0 48 31 48 49 0 12 3 12 12 3 10 -10 10 -17 0 -32 -15 -25 -15 -30 0
-30 6 0 19 -7 28 -15 14 -12 23 -13 45 -5 20 7 31 7 41 -1 10 -8 14 -8 14 0 0
7 21 11 56 11 34 0 53 -4 49 -10 -4 -6 6 -10 22 -10 21 0 24 3 13 10 -21 13
-5 24 25 16 17 -4 25 -13 25 -27 0 -18 2 -20 15 -9 12 10 13 15 4 20 -8 6 -8
10 2 16 18 11 48 9 82 -5 44 -17 66 -13 79 14 6 13 14 22 18 20 4 -3 13 2 20
10 11 14 15 14 31 -1 10 -9 22 -13 28 -10 5 4 15 -2 21 -13 6 -12 16 -18 25
-15 8 4 15 2 15 -4 0 -18 59 -36 83 -25 90 42 117 58 117 70 0 15 26 18 35 3
10 -17 25 -11 25 10 0 26 15 25 34 -1 14 -21 14 -21 27 -1 7 11 17 18 23 16
12 -4 50 52 51 74 0 20 26 32 67 32 20 0 40 5 43 10 12 20 25 9 19 -15z m1361
-95 c3 -5 1 -10 -4 -10 -6 0 -11 5 -11 10 0 6 2 10 4 10 3 0 8 -4 11 -10z
m205 -60 c0 -5 -4 -10 -10 -10 -5 0 -10 5 -10 10 0 6 5 10 10 10 6 0 10 -4 10
-10z m-450 -65 c0 -8 -2 -15 -4 -15 -2 0 -6 7 -10 15 -3 8 -1 15 4 15 6 0 10
-7 10 -15z m508 -29 c3 -15 0 -17 -20 -11 l-23 8 24 -20 25 -20 -23 -12 c-42
-23 -68 23 -34 61 20 23 46 20 51 -6z m-82 -70 c11 -8 31 -16 44 -18 l25 -4
-30 -16 c-27 -14 -85 -22 -152 -19 -13 1 -22 7 -20 14 1 6 -6 11 -15 9 -10 -2
-18 2 -18 9 0 7 10 9 30 6 22 -5 32 -2 39 11 8 13 12 14 19 4 7 -10 11 -10 22
3 16 19 30 19 56 1z m-646 -120 c0 -2 -8 -10 -17 -17 -16 -13 -17 -12 -4 4 13
16 21 21 21 13z m380 -71 c-7 -8 -16 -15 -21 -15 -5 0 -6 7 -3 15 4 8 13 15
21 15 13 0 13 -3 3 -15z m250 -65 c0 -5 -7 -10 -15 -10 -8 0 -15 5 -15 10 0 6
7 10 15 10 8 0 15 -4 15 -10z m60 -10 c13 -8 13 -10 -2 -10 -9 0 -20 5 -23 10
-8 13 5 13 25 0z m-3670 -69 c0 -6 -4 -13 -10 -16 -5 -3 -10 1 -10 9 0 9 5 16
10 16 6 0 10 -4 10 -9z m2070 -141 c41 -21 141 -110 124 -110 -6 0 -26 12 -45
26 -19 14 -43 30 -54 35 -11 5 -27 13 -35 18 -8 5 -30 15 -48 22 -24 8 -30 14
-20 20 20 13 35 11 78 -11z m650 -49 c-1 -13 -29 45 -29 59 0 8 6 0 14 -19 8
-18 15 -36 15 -40z m-1876 31 c2 -4 -18 -23 -46 -42 -28 -19 -60 -43 -72 -53
-31 -28 -76 -49 -76 -37 0 6 7 13 15 16 8 4 15 11 15 18 0 14 65 78 95 94 24
13 62 15 69 4z m2826 -17 c0 -13 8 -28 17 -34 29 -16 7 -24 -31 -11 -38 12
-49 24 -51 52 -1 14 6 18 32 18 28 0 33 -3 33 -25z m-2370 -75 c0 -13 7 -20
18 -20 10 0 22 -4 28 -10 6 -6 20 -4 39 6 42 22 78 5 72 -34 -6 -40 -17 -62
-33 -62 -8 0 -18 -8 -21 -17 -10 -26 -24 -38 -60 -51 l-33 -11 0 35 c0 24 -5
34 -15 34 -10 0 -15 7 -13 18 2 12 -3 16 -19 15 -27 -3 -27 -3 -8 33 8 16 15
38 15 50 0 11 3 24 7 27 12 13 23 7 23 -13z m320 -11 c0 -5 -4 -9 -10 -9 -5 0
-10 7 -10 16 0 8 5 12 10 9 6 -3 10 -10 10 -16z m-43 -55 c-2 -13 -1 -22 2
-21 17 4 69 -36 75 -58 4 -14 11 -25 16 -25 6 0 10 -11 10 -25 0 -14 5 -25 11
-25 6 0 20 -11 31 -26 11 -14 23 -23 25 -20 3 3 14 -6 25 -19 11 -14 28 -25
38 -25 11 0 24 -10 31 -21 9 -17 13 -19 20 -8 6 10 9 8 9 -9 0 -13 -4 -20 -10
-17 -16 10 -12 -7 8 -28 17 -19 16 -20 -23 -12 -22 4 -47 8 -55 8 -8 0 -21 4
-27 9 -20 16 -36 -38 -24 -75 7 -20 7 -35 0 -48 -13 -25 -18 -24 -50 7 -29 28
-99 48 -131 38 -13 -4 -28 1 -41 14 -37 33 -88 55 -100 43 -24 -24 -58 4 -40
32 4 7 6 26 4 44 -2 32 3 40 67 94 37 31 40 28 70 -51 14 -39 26 -56 41 -60
12 -3 23 -9 24 -15 1 -5 21 -10 45 -10 36 -1 40 1 28 13 -7 7 -33 23 -57 35
-37 19 -44 28 -55 70 -7 26 -18 55 -25 63 -11 14 -10 18 6 30 21 16 39 19 31
5 -3 -5 1 -11 9 -15 25 -9 27 13 6 57 -22 44 -26 69 -15 80 13 12 26 -6 21
-29z m548 4 c11 -1 25 -9 31 -17 6 -7 23 -13 38 -13 19 0 24 -4 17 -11 -18
-18 -142 -20 -180 -4 l-34 14 21 21 c19 19 42 21 107 10z m-1302 -45 c18 -9
35 -16 40 -15 16 4 5 -7 -34 -34 -49 -34 -82 -40 -102 -19 -9 9 -28 13 -46 11
-27 -3 -31 0 -31 21 0 22 4 25 25 21 16 -3 30 1 41 13 21 24 65 24 107 2z
m-1110 -18 c-3 -9 -8 -14 -10 -11 -3 3 -2 9 2 15 9 16 15 13 8 -4z m1515 0
c-2 -6 -9 -9 -15 -7 -7 2 -13 -2 -13 -8 0 -5 4 -10 9 -10 4 0 6 -11 3 -25 -2
-14 -10 -25 -17 -25 -7 0 -15 -11 -17 -24 -4 -17 -1 -23 9 -19 7 3 13 11 13
18 0 8 14 23 30 35 17 12 30 17 30 11 0 -6 -5 -11 -11 -11 -5 0 -8 -4 -5 -8 3
-5 -4 -16 -15 -25 -22 -19 -25 -47 -5 -47 7 0 25 -10 40 -21 26 -20 27 -25 20
-78 -5 -48 -12 -62 -45 -94 -32 -31 -42 -36 -58 -28 -44 24 -121 9 -121 -24 0
-8 -7 -15 -16 -15 -15 0 -16 9 -11 65 6 63 6 65 -17 65 -13 0 -29 -7 -36 -15
-13 -16 -45 -21 -35 -6 3 5 1 12 -5 16 -20 12 -11 53 13 60 50 15 107 46 107
59 0 7 17 31 38 53 51 54 82 93 82 103 0 9 28 19 43 16 5 -1 7 -6 5 -11z
m-1109 -59 c-9 -8 -10 -7 -5 7 3 10 7 24 7 30 1 7 3 4 6 -7 3 -10 -1 -23 -8
-30z m-349 -36 c0 -5 -5 -10 -11 -10 -5 0 -7 5 -4 10 3 6 8 10 11 10 2 0 4 -4
4 -10z m3803 -57 c-7 -2 -19 -2 -25 0 -7 3 -2 5 12 5 14 0 19 -2 13 -5z
m-1513 -127 c0 -3 -4 -8 -10 -11 -5 -3 -10 -1 -10 4 0 6 5 11 10 11 6 0 10 -2
10 -4z m-2020 -45 c-10 -20 -30 -29 -30 -14 0 10 33 44 37 39 3 -2 0 -14 -7
-25z m3360 -12 c0 -6 -4 -7 -10 -4 -5 3 -10 11 -10 16 0 6 5 7 10 4 6 -3 10
-11 10 -16z m-325 -19 c-3 -5 -21 -10 -38 -10 -24 0 -28 3 -17 10 20 13 63 13
55 0z m-1302 -57 c-16 -13 -10 -49 6 -38 5 3 12 1 16 -5 3 -5 -1 -10 -9 -10
-10 0 -16 -8 -15 -22 0 -22 1 -22 9 -3 8 19 9 19 9 -2 1 -16 -5 -23 -18 -23
-37 0 -32 -20 9 -36 37 -15 67 -48 62 -66 -1 -5 5 -8 14 -8 12 0 14 -7 9 -30
-4 -19 -3 -30 4 -30 6 0 11 7 11 16 0 8 4 13 10 9 5 -3 6 -13 3 -22 -4 -10 -2
-14 4 -10 14 9 56 -42 49 -59 -2 -6 6 -33 20 -59 13 -26 21 -52 18 -57 -7 -11
-65 -2 -74 11 -3 5 -23 11 -45 14 -69 10 -168 42 -235 77 -9 4 -30 11 -48 15
-45 9 -45 53 0 46 3 0 17 11 30 24 25 27 44 32 51 13 4 -8 8 -4 12 10 8 24 21
29 28 10 3 -9 8 -10 15 -3 7 7 5 17 -9 34 -19 23 -20 23 -34 5 -13 -17 -14
-17 -15 -2 0 9 -3 18 -7 20 -12 5 -43 64 -43 82 0 10 9 16 25 16 27 0 105 63
105 85 0 21 21 35 36 22 10 -10 10 -14 -3 -24z m-1703 13 c0 -2 3 -11 6 -20 4
-11 1 -16 -10 -16 -9 0 -16 2 -16 4 0 2 -3 11 -6 20 -4 11 -1 16 10 16 9 0 16
-2 16 -4z m-80 -31 c-27 -32 -71 -58 -82 -47 -7 7 0 12 21 17 17 4 36 15 41
26 6 10 16 19 22 19 7 0 6 -6 -2 -15z m1073 -22 c-2 -10 46 -33 68 -33 5 0 18
9 30 21 28 28 90 36 120 15 19 -13 23 -26 26 -81 2 -52 0 -65 -12 -65 -8 0
-15 5 -15 11 0 6 -6 9 -14 6 -8 -3 -20 1 -26 9 -17 19 -57 18 -70 -3 -8 -13
-13 -14 -16 -6 -4 10 -13 9 -36 -3 -26 -13 -148 -27 -148 -17 0 2 7 15 16 28
12 18 13 25 4 25 -9 0 -9 4 -2 13 5 6 12 23 14 37 1 13 10 32 18 42 16 18 46
19 43 1z m-1298 -18 c0 -10 -6 -20 -12 -22 -8 -3 -13 5 -13 22 0 17 5 25 13
23 6 -3 12 -13 12 -23z m1635 15 c0 -5 7 -7 15 -4 8 4 22 3 31 0 28 -11 -4
-36 -46 -36 -37 0 -38 1 -27 25 12 25 27 34 27 15z m198 -24 c3 -11 0 -16 -7
-12 -6 4 -11 3 -11 -2 0 -13 -27 -23 -45 -16 -16 6 -20 35 -8 48 15 14 68 1
71 -18z m-48 -62 c0 -17 12 -18 27 -3 18 18 30 3 25 -30 -3 -25 -10 -32 -38
-37 -19 -3 -34 -11 -34 -18 -1 -6 -7 1 -15 15 -10 19 -21 26 -40 24 -14 -2
-25 -1 -25 1 0 9 48 53 53 48 2 -2 10 2 17 11 14 17 30 11 30 -11z m2120 -5
c0 -16 -27 -39 -45 -39 -13 0 -12 5 6 30 21 27 39 32 39 9z m-2470 -53 c0 -3
-4 -8 -10 -11 -5 -3 -10 -1 -10 4 0 6 5 11 10 11 6 0 10 -2 10 -4z m-215 -26
c3 -5 1 -10 -4 -10 -6 0 -11 5 -11 10 0 6 2 10 4 10 3 0 8 -4 11 -10z m169
-16 c3 -9 4 -20 1 -25 -3 -4 3 -14 15 -21 38 -24 25 -53 -36 -82 -35 -17 -52
-30 -48 -38 4 -7 3 -8 -5 -4 -6 4 -17 3 -24 -2 -7 -6 -24 -12 -37 -14 -14 -2
-51 -16 -84 -31 -105 -48 -109 -40 -50 91 17 36 21 38 51 17 21 -14 21 -14 17
25 -3 30 0 40 10 40 8 0 22 7 30 16 10 9 24 13 36 9 12 -4 31 0 45 9 22 15 25
14 33 -1 9 -14 10 -14 16 5 9 26 21 28 30 6z m-1464 -19 c0 -8 -4 -15 -10 -15
-5 0 -10 7 -10 15 0 8 5 15 10 15 6 0 10 -7 10 -15z m1835 -45 c3 -5 0 -10 -9
-10 -8 0 -23 -3 -33 -7 -16 -6 -16 -5 -4 10 15 19 37 22 46 7z m-1589 -37
c-10 -10 -19 5 -10 18 6 11 8 11 12 0 2 -7 1 -15 -2 -18z m3824 7 c-6 -11 -18
-20 -26 -20 -12 0 -10 5 7 20 30 25 32 25 19 0z m-2512 -140 c2 -5 15 -7 28
-4 40 10 74 -4 88 -37 l13 -31 12 31 c16 38 68 59 103 40 16 -9 23 -9 26 0 6
19 54 12 81 -11 14 -13 20 -16 13 -6 -18 23 0 31 51 22 23 -4 46 -7 50 -6 4 1
18 -4 30 -13 12 -8 28 -15 37 -15 8 0 21 -9 28 -21 11 -18 11 -24 -2 -38 -21
-23 -21 -52 -1 -45 11 5 15 -1 15 -17 0 -32 -11 -47 -45 -65 -25 -13 -30 -13
-44 0 -10 9 -26 13 -39 9 -14 -3 -30 1 -42 12 -17 15 -42 19 -141 21 -73 2
-126 8 -135 15 -10 8 -18 9 -28 0 -7 -6 -34 -14 -60 -17 -38 -6 -46 -4 -46 9
0 14 -5 15 -26 7 -14 -6 -35 -10 -46 -10 -12 0 -29 -6 -37 -14 -9 -8 -33 -17
-53 -21 -34 -6 -38 -5 -44 19 -8 35 3 145 16 161 6 8 18 11 26 8 8 -3 14 0 14
6 0 7 10 15 22 20 29 11 132 4 136 -9z m-1308 -71 c0 -5 -7 -9 -15 -9 -9 0
-15 9 -15 21 0 18 2 19 15 9 8 -7 15 -16 15 -21z m850 24 c-1 -18 -18 -35 -24
-24 -4 6 -4 16 -1 21 7 12 25 13 25 3z m-1050 -48 c0 -8 -4 -15 -10 -15 -5 0
-10 7 -10 15 0 8 5 15 10 15 6 0 10 -7 10 -15z m133 -95 c-3 -11 -9 -20 -14
-20 -5 0 -9 -6 -9 -14 0 -7 -7 -19 -15 -26 -13 -10 -15 -9 -15 9 0 26 30 70
47 71 6 0 9 -8 6 -20z m-138 -20 c-3 -5 -10 -10 -16 -10 -5 0 -9 5 -9 10 0 6
7 10 16 10 8 0 12 -4 9 -10z m195 -36 c0 -12 -6 -26 -12 -32 -10 -8 -13 -2
-12 26 1 21 2 42 3 47 2 17 21 -19 21 -41z m1610 21 c10 -11 16 -13 26 -4 15
12 44 6 44 -9 0 -9 -46 -16 -177 -28 -46 -5 -63 -3 -63 6 0 10 -3 10 -15 0 -9
-8 -27 -10 -47 -6 -18 3 -48 9 -67 12 -19 2 -41 9 -50 14 -32 18 32 28 185 29
125 1 153 -1 164 -14z m-373 -1 c-3 -3 -12 -4 -19 -1 -8 3 -5 6 6 6 11 1 17
-2 13 -5z m-1412 -34 c-3 -5 -12 -10 -20 -10 -8 0 -17 5 -20 10 -4 6 5 10 20
10 15 0 24 -4 20 -10z m179 -218 c-1 -6 -2 -19 -2 -27 -1 -10 -13 -15 -31 -15
-36 0 -46 13 -31 39 11 22 66 25 64 3z m3403 -68 c-3 -3 -12 -4 -19 -1 -8 3
-5 6 6 6 11 1 17 -2 13 -5z m-3427 -11 c0 -5 -5 -15 -10 -23 -8 -12 -10 -11
-10 8 0 12 5 22 10 22 6 0 10 -3 10 -7z m3470 -39 c0 -17 -22 -14 -28 4 -2 7
3 12 12 12 9 0 16 -7 16 -16z m-40 -23 c0 -14 -18 -23 -30 -16 -6 4 -8 11 -5
16 8 12 35 12 35 0z m-3439 -13 c0 -7 2 -26 3 -41 1 -15 -4 -33 -11 -39 -10
-8 -13 -6 -14 8 -2 20 -2 64 0 77 2 12 21 8 22 -5z m3289 -28 c0 -5 -2 -10 -4
-10 -3 0 -8 5 -11 10 -3 6 -1 10 4 10 6 0 11 -4 11 -10z m-230 -90 c0 -5 -2
-10 -4 -10 -3 0 -8 5 -11 10 -3 6 -1 10 4 10 6 0 11 -4 11 -10z m-2710 -35
c-7 -8 -17 -15 -23 -15 -5 0 -2 9 8 20 21 23 35 19 15 -5z m2610 -85 c-5 -22
-8 -27 -9 -13 -1 21 9 56 14 51 2 -2 0 -19 -5 -38z m-2334 -17 c-10 -10 -19 5
-10 18 6 11 8 11 12 0 2 -7 1 -15 -2 -18z m74 -3 c0 -5 -5 -10 -11 -10 -5 0
-7 5 -4 10 3 6 8 10 11 10 2 0 4 -4 4 -10z m-50 -49 c-1 -18 -50 -63 -63 -58
-9 3 -18 1 -20 -6 -3 -9 -8 -9 -18 1 -9 9 -10 12 -1 12 7 0 12 7 12 15 0 19
58 55 76 48 8 -3 14 -8 14 -12z m-64 -93 c10 -15 -7 -25 -53 -31 -37 -4 -43
-3 -43 13 0 11 7 23 16 28 18 10 72 4 80 -10z m182 -42 c-2 -11 -9 -21 -17
-24 -10 -3 -12 2 -7 21 4 16 1 27 -6 29 -7 3 -8 9 -3 18 11 18 37 -17 33 -44z
m2326 9 c3 -9 0 -15 -9 -15 -9 0 -12 6 -9 15 4 8 7 15 9 15 2 0 5 -7 9 -15z
m51 -25 c16 -26 13 -50 -6 -50 -11 0 -19 -7 -19 -17 0 -14 -2 -15 -9 -5 -4 8
-14 13 -22 12 -29 -5 -46 1 -67 20 -30 28 -28 40 9 40 17 0 28 -4 24 -10 -3
-5 1 -20 9 -32 13 -18 16 -19 16 -6 0 9 9 20 20 23 11 3 20 13 20 21 0 16 16
19 25 4z m-2345 -40 c0 -5 -9 -14 -20 -20 -22 -12 -23 -10 -14 14 7 17 34 22
34 6z m150 -10 c0 -19 -20 -27 -33 -13 -8 7 11 33 24 33 5 0 9 -9 9 -20z m-26
-47 c18 -10 18 -11 -5 -26 -13 -8 -41 -17 -63 -20 -21 -3 -42 -9 -47 -14 -5
-5 -25 -7 -44 -5 -35 4 -45 22 -27 48 12 19 59 25 71 10 10 -12 18 -11 48 10
20 13 39 21 42 16 3 -5 15 -13 25 -19z m-334 -128 c0 -9 -6 -12 -15 -9 -8 4
-15 10 -15 15 0 5 7 9 15 9 8 0 15 -7 15 -15z m107 -21 c-3 -3 -12 -4 -19 -1
-8 3 -5 6 6 6 11 1 17 -2 13 -5z m20 -46 c-3 -8 -6 -5 -6 6 -1 11 2 17 5 13 3
-3 4 -12 1 -19z m-61 -9 c19 -22 19 -22 -3 -10 -13 6 -23 16 -23 21 0 15 5 12
26 -11z m184 8 c0 -7 -10 -18 -21 -26 -18 -11 -23 -11 -30 1 -14 22 -10 31 11
25 11 -3 20 -1 20 4 0 5 5 9 10 9 6 0 10 -6 10 -13z"/>
<path d="M3130 3510 c0 -5 4 -10 9 -10 6 0 13 5 16 10 3 6 -1 10 -9 10 -9 0
-16 -4 -16 -10z"/>
<path d="M2240 3435 c0 -17 9 -19 28 -6 11 7 10 10 -3 15 -23 9 -25 8 -25 -9z"/>
<path d="M2384 3089 c-8 -14 18 -31 30 -19 9 9 0 30 -14 30 -5 0 -12 -5 -16
-11z"/>
<path d="M2625 2060 c-3 -5 1 -10 10 -10 9 0 13 5 10 10 -3 6 -8 10 -10 10 -2
0 -7 -4 -10 -10z"/>
<path d="M2720 2010 c0 -5 9 -10 20 -10 11 0 20 5 20 10 0 6 -9 10 -20 10 -11
0 -20 -4 -20 -10z"/>
<path d="M2210 2097 c0 -7 7 -22 16 -33 15 -19 15 -18 11 4 -3 12 -1 22 5 22
5 0 6 5 3 10 -9 15 -35 12 -35 -3z"/>
<path d="M2065 1920 c3 -5 8 -10 11 -10 2 0 4 5 4 10 0 6 -5 10 -11 10 -5 0
-7 -4 -4 -10z"/>
<path d="M2646 4695 c-10 -26 -7 -35 9 -35 8 0 15 7 15 15 0 8 0 18 1 22 1 15
-19 13 -25 -2z"/>
<path d="M3171 4686 c-9 -10 -8 -15 3 -19 8 -3 16 2 19 14 6 22 -6 25 -22 5z"/>
<path d="M1773 4633 c-7 -2 -13 -9 -13 -14 0 -6 5 -7 12 -3 6 4 25 11 42 15
l31 7 -30 0 c-16 0 -36 -2 -42 -5z"/>
<path d="M1645 4620 c-3 -5 -1 -10 4 -10 6 0 11 5 11 10 0 6 -2 10 -4 10 -3 0
-8 -4 -11 -10z"/>
<path d="M1850 4626 c0 -2 7 -9 15 -16 13 -11 14 -10 9 4 -5 14 -24 23 -24 12z"/>
<path d="M1725 4590 c-3 -5 -2 -10 4 -10 5 0 13 5 16 10 3 6 2 10 -4 10 -5 0
-13 -4 -16 -10z"/>
<path d="M3460 4580 c0 -6 7 -10 15 -10 8 0 15 2 15 4 0 2 -7 6 -15 10 -8 3
-15 1 -15 -4z"/>
<path d="M3440 4525 c-8 -9 -8 -15 -2 -15 12 0 26 19 19 26 -2 2 -10 -2 -17
-11z"/>
<path d="M3748 4298 c-2 -15 -11 -24 -25 -26 -13 -2 -23 -7 -23 -12 0 -5 -15
-10 -32 -12 l-33 -4 28 -14 c16 -8 26 -19 23 -27 -3 -7 -4 -13 -2 -13 3 0 11
-3 19 -6 9 -3 16 3 20 15 3 12 13 21 25 21 11 0 22 7 26 15 3 9 0 15 -10 15
-16 0 -16 12 1 53 4 10 3 17 -3 17 -6 0 -12 -10 -14 -22z"/>
<path d="M3830 4272 c0 -4 9 -8 20 -8 11 0 20 4 20 8 0 4 -9 8 -20 8 -11 0
-20 -4 -20 -8z"/>
<path d="M4175 3939 c-4 -6 -19 -7 -37 -4 -21 5 -28 4 -24 -4 10 -16 51 -14
66 4 7 8 10 15 7 15 -3 0 -9 -5 -12 -11z"/>
<path d="M4291 3641 c-8 -5 -9 -11 -3 -15 5 -3 12 1 16 9 6 17 6 18 -13 6z"/>
<path d="M845 3312 c-24 -13 -26 -17 -12 -20 9 -2 17 -8 17 -13 0 -5 5 -9 11
-9 8 0 8 4 0 14 -10 11 -8 16 6 24 10 6 16 13 13 15 -3 3 -18 -2 -35 -11z"/>
<path d="M790 3259 c-6 -11 -10 -27 -8 -35 2 -8 8 1 14 20 12 40 10 46 -6 15z"/>
<path d="M696 3115 c4 -8 8 -15 10 -15 2 0 4 7 4 15 0 8 -4 15 -10 15 -5 0 -7
-7 -4 -15z"/>
<path d="M4814 2575 c-17 -13 -17 -14 -2 -15 9 0 20 5 23 11 11 17 0 20 -21 4z"/>
<path d="M1680 2375 c0 -9 9 -15 21 -15 18 0 19 2 5 15 -8 8 -17 15 -20 15 -3
0 -6 -7 -6 -15z"/>
<path d="M611 2031 c-1 -31 -3 -33 -28 -27 l-28 6 24 -20 c27 -23 35 -25 48
-7 7 8 6 24 -3 47 l-12 35 -1 -34z"/>
<path d="M1512 1783 c-15 -22 -18 -43 -16 -98 1 -38 4 -79 7 -90 3 -11 6 -25
6 -32 1 -6 10 -15 21 -18 11 -3 20 -11 20 -16 0 -24 42 -99 52 -93 28 17 -31
374 -63 374 -4 0 -16 -12 -27 -27z"/>
<path d="M0 640 l0 -640 630 0 630 0 0 53 c0 40 -8 70 -30 113 -34 68 -180
234 -255 289 -65 48 -263 252 -293 301 -33 54 -164 280 -180 310 -7 13 -33 54
-57 89 -24 36 -49 79 -57 95 l-13 30 -187 0 -188 0 0 -640z"/>
<path d="M4760 1200 c-25 -44 -48 -80 -52 -80 -5 0 -8 -6 -8 -14 0 -14 -37
-85 -50 -96 -3 -3 -14 -25 -24 -50 -32 -81 -70 -150 -104 -188 -18 -20 -52
-66 -77 -102 -41 -62 -104 -123 -168 -163 -33 -21 -67 -73 -67 -103 0 -12 -9
-50 -21 -85 -16 -52 -19 -78 -13 -136 3 -40 10 -73 15 -73 5 0 9 -25 9 -55 l0
-55 460 0 460 0 0 640 0 640 -157 0 -158 0 -45 -80z"/>
<path d="M4370 992 c-14 -2 -32 -9 -40 -16 -8 -7 -23 -16 -32 -19 -10 -4 -18
-11 -18 -16 0 -11 65 -3 92 10 9 5 28 9 42 9 18 0 24 4 20 14 -6 17 -29 23
-64 18z"/>
<path d="M2311 873 c-8 -13 -13 -15 -19 -6 -11 18 -60 9 -77 -13 -8 -10 -15
-14 -15 -7 0 16 -30 21 -62 10 -26 -8 -32 -20 -31 -55 1 -7 -4 -11 -11 -9 -6
2 -21 -7 -33 -20 -27 -29 -47 -30 -38 -3 8 24 -20 39 -38 21 -8 -8 -8 -11 1
-11 7 0 12 -6 12 -14 0 -8 5 -16 10 -18 6 -2 12 -25 14 -51 2 -27 7 -51 10
-54 14 -14 4 -25 -19 -21 -34 7 -34 -24 0 -46 32 -21 145 -134 145 -146 0 -4
9 -10 20 -13 12 -3 20 -14 20 -25 0 -16 5 -19 23 -15 12 3 19 2 15 -2 -4 -4
-1 -20 7 -34 7 -14 16 -38 20 -53 3 -16 12 -28 21 -28 8 0 29 -13 47 -30 26
-24 41 -30 77 -30 26 0 50 4 55 9 6 5 21 11 35 13 14 1 25 10 26 18 1 29 16
49 45 59 16 5 29 15 29 20 0 15 37 14 46 0 4 -7 -1 -16 -10 -21 -16 -9 -16
-11 3 -25 26 -18 27 -50 1 -83 -11 -14 -20 -33 -20 -42 0 -25 -77 -65 -140
-72 -37 -4 -50 -2 -40 4 9 6 10 10 3 10 -22 0 -43 -12 -43 -26 0 -8 -6 -14
-14 -14 -7 0 -25 -11 -40 -25 l-27 -25 225 0 c144 0 226 4 226 10 0 11 -20 14
-58 11 -29 -3 -52 15 -52 40 0 11 -4 19 -10 19 -5 0 -10 5 -10 11 0 8 5 8 15
-1 19 -16 69 -4 62 14 -3 7 -2 19 3 26 6 9 11 7 20 -10 l12 -22 12 23 c6 13
24 30 39 37 15 7 32 22 37 33 6 10 17 19 25 19 8 0 15 5 15 10 0 6 -7 10 -15
10 -8 0 -15 6 -15 14 0 8 -6 21 -14 29 -13 12 -10 16 19 30 18 9 36 25 40 36
3 12 12 21 19 21 13 0 23 19 45 89 14 45 14 51 -4 45 -8 -3 -24 2 -37 11 -13
10 -16 15 -7 12 21 -7 39 11 31 31 -4 12 -1 14 12 9 14 -6 17 -3 12 9 -3 8 -6
20 -6 26 0 6 -10 8 -23 6 -20 -4 -23 -1 -19 19 4 19 0 23 -19 23 -19 0 -21 2
-9 10 9 5 19 5 24 0 4 -4 15 -6 22 -3 8 3 18 -5 23 -18 7 -18 10 -19 10 -6 1
9 6 17 12 17 5 0 8 4 4 9 -3 5 8 18 25 27 16 10 30 22 30 26 0 4 9 8 21 8 11
0 32 13 47 28 15 16 46 37 70 47 73 32 88 105 21 105 -6 0 -7 -9 -4 -20 7 -22
-5 -26 -22 -9 -9 9 -25 1 -64 -30 -28 -22 -56 -41 -61 -41 -8 0 -20 -8 -53
-37 -7 -7 -22 -13 -32 -13 -10 0 -29 -7 -42 -16 -19 -14 -25 -14 -32 -3 -6 11
-11 11 -21 1 -20 -20 -31 -14 -24 13 4 14 2 25 -2 25 -5 0 -7 12 -4 27 4 24 3
25 -19 19 -43 -12 -101 -12 -106 2 -3 6 -20 12 -39 12 -24 0 -34 5 -34 16 0
13 -4 13 -30 -3 -25 -14 -34 -15 -48 -6 -40 28 -106 52 -127 47 -13 -3 -26 -1
-29 5 -12 18 -84 13 -95 -6z m379 -103 c0 -5 -4 -10 -10 -10 -5 0 -10 5 -10
10 0 6 5 10 10 10 6 0 10 -4 10 -10z m96 -67 c-10 -10 -19 5 -10 18 6 11 8 11
12 0 2 -7 1 -15 -2 -18z m-93 -364 c-22 -22 -43 -19 -43 7 0 9 11 14 32 14
l32 0 -21 -21z"/>
<path d="M1030 576 c0 -9 30 -14 35 -6 4 6 -3 10 -14 10 -12 0 -21 -2 -21 -4z"/>
<path d="M2780 55 c0 -27 9 -32 28 -13 18 18 14 38 -8 38 -15 0 -20 -7 -20
-25z"/>
</g>
</svg>
