<?xml version="1.0" standalone="no"?>
<!DOCTYPE svg PUBLIC "-//W3C//DTD SVG 20010904//EN"
 "http://www.w3.org/TR/2001/REC-SVG-20010904/DTD/svg10.dtd">
<svg version="1.0" xmlns="http://www.w3.org/2000/svg"
 width="420.000000pt" height="420.000000pt" viewBox="0 0 420.000000 420.000000"
 preserveAspectRatio="xMidYMid meet">
<metadata>
Created by potrace 1.11, written by Peter Selinger 2001-2013
</metadata>
<g transform="translate(0.000000,420.000000) scale(0.100000,-0.100000)"
fill="#000000" stroke="none">
<path d="M1270 4000 c-616 -39 -1108 -298 -1221 -643 l-24 -72 0 -1125 0
-1125 23 -89 c45 -178 135 -331 265 -452 119 -111 266 -187 427 -221 79 -17
157 -18 1055 -18 l970 0 185 29 c151 24 216 30 350 30 187 0 243 -8 528 -70
237 -51 261 -53 299 -20 l28 24 0 1116 0 1116 -25 25 c-21 21 -58 32 -231 70
-332 72 -382 79 -599 79 -135 0 -228 -5 -303 -17 -59 -9 -114 -17 -122 -17
-11 0 -14 57 -17 343 -4 337 -4 343 -29 407 -158 412 -813 676 -1559 630z
m352 -684 c32 -10 79 -32 105 -49 77 -52 68 -94 -31 -144 -165 -84 -461 -63
-573 40 -44 40 -22 83 62 124 35 17 66 27 150 47 43 10 232 -2 287 -18z"/>
</g>
</svg>
